<?xml version="1.0" encoding="UTF-8"?>
<svg id="Layer_1" data-name="Layer 1" xmlns="http://www.w3.org/2000/svg" viewBox="0 0 600 189.64">
  <defs>
    <style>
      .cls-1 {
        fill: #ceebf2;
      }
    </style>
  </defs>
  <path class="cls-1" d="M76.25,151.7s0,.06,0,.09c.03,4.98,4.25,8.94,9.23,8.94h432.78c3.59,0,6.2-3.38,5.31-6.86-4.47-17.44-25.73-31.36-53.04-34.98-8.59-18.18-29.98-31.05-55.01-31.05-.69,0-1.38.01-2.07.03-8.77-33.3-39.1-57.86-75.15-57.86-32.31,0-60.02,19.72-71.74,47.78-9.66-2.9-20.25-4.5-31.37-4.5-38.91,0-71.45,19.59-79.52,45.78-5.16-.72-10.58-1.11-16.17-1.11-34.94,0-63.25,15.1-63.25,33.74Z"/>
</svg>