<?xml version="1.0" encoding="UTF-8"?>
<svg id="Layer_1" data-name="Layer 1" xmlns="http://www.w3.org/2000/svg" viewBox="0 0 60 60">
  <defs>
    <style>
      .cls-1 {
        fill: #082331;
      }

      .cls-2 {
        fill: #5d679a;
      }
    </style>
  </defs>
  <path class="cls-2" d="M45.8,45.13l-9.5,5.65c-.32.19-.72.07-.89-.25l-13.98-26.7c-.18-.35-.64-.45-.95-.21-1.96,1.51-3.52,3.36-4.98,5.34-.11.15-.23.31-.4.42-.33.21-.82.12-1.05-.2-.22-.3-.19-.72-.1-1.08,1.17-4.45,2.02-9.01,3.01-13.51l.21-.96c.08-.34.41-.56.75-.48l10.98,2.43c1.42.31,2.83.66,4.26.93.31.06.63.17.83.42.29.36.17.97-.24,1.2-.19.11-.41.13-.62.16-2.32.3-4.65.94-6.79,1.88-.39.17-.5.68-.22.99l19.83,23.03c.26.3.18.76-.15.96Z"/>
  <g>
    <g>
      <g>
        <path class="cls-1" d="M28.13,41.07s-.05-.05-.07-.07l-1.06-1.34c-.28-.41-.55-.81-.81-1.19-.13-.19-.26-.38-.39-.57l-.19-.28-.16-.22c-.42-.57-.82-1.08-1.19-1.54-.74-.92-1.39-1.64-1.96-2.16-.55-.52-1.02-.85-1.45-1.01l1.72-3.8,1.3,2.48,5.61,10.71-.8-.61c-.14-.11-.34-.24-.55-.38Z"/>
        <path class="cls-1" d="M27.57,49.78c-2.72-.97-3.99-2.96-2.19-4.69,1.83-1.8,4.15.93,4.15.93-4.27-6.33-8.08-4.79-8.08-4.79,0,0,.47.66.07,1.7-.58,1.5-2.38,1.79-3.3,1.44-.54-.19-1.05-.63-1.34-1.2-.07-.14-.13-.3-.18-.46-.02-.08-.04-.16-.05-.24-.01-.08-.04-.19.01-.18.12-.07.3-.19.55-.36.82-.58,2.01-1.53,3.22-2.14.6-.31,1.21-.54,1.74-.67.26-.07.5-.11.71-.13.22,0,.43.07.57.11.59.23,1.95.46,3.85,1.46.09.05.47.27.83.51.21.13.41.27.55.38l.8.61.47.9,3.98,7.61-2.91,1.53c-1.2-1.15-2.32-1.92-3.45-2.31Z"/>
      </g>
      <g>
        <path class="cls-1" d="M48.3,46.06s-.05.05-.07.07l-1.28,1.13c-2.3,1.75-4.24,3.27-5.86,4.64-.81.69-1.53,1.33-2.18,1.95-.16.16-.32.31-.47.46-.02.02.01,0-.06.05l-.25.14c-.17.09-.34.17-.52.25-.36.14-.73.24-1.12.3-.77.11-1.55.03-2.27-.21-.72-.24-1.39-.66-1.92-1.21-.27-.27-.5-.57-.7-.89l-.07-.12s-.01-.02-.02-.03l-.03-.03-.05-.05c-.14-.14-.28-.27-.41-.4l2.91-1.53.23.44c.06.1.02.07.21.36.15.21.34.4.56.53.44.28.98.38,1.48.26.13-.03.25-.07.37-.12.11-.05.26-.13.26-.13l.21-.13,1.71-1.02,3.42-2.04,6.84-4.07-.57.83c-.1.15-.22.35-.34.57Z"/>
        <path class="cls-1" d="M57.03,46.14c-.82,2.77-2.73,4.15-4.57,2.44-1.89-1.73.7-4.2.7-4.2-6.09,4.61-4.35,8.33-4.35,8.33,0,0,.63-.51,1.7-.16,1.53.5,1.91,2.28,1.62,3.22-.31,1.11-1.65,2.11-3.15,1.6-2.44-.85-2.75-5.34-2.39-6.54.19-.61.36-1.97,1.25-3.92.04-.1.25-.48.46-.86.12-.21.25-.42.34-.57l.57-.83.88-.52,7.38-4.39,1.68,2.82c-1.08,1.26-1.79,2.42-2.12,3.58Z"/>
      </g>
    </g>
    <g>
      <g>
        <path class="cls-1" d="M16.3,30.25s-.04.07-.05.09c-.3.47-.53.99-.85,1.41-.05.04-.1.08-.15.11-.06.03-.06.04-.34.08-.58.05-1.14-.04-1.67-.28-.52-.22-1.07-.68-1.4-1.2-.32-.5-.48-1.03-.54-1.46-.06-.43-.05-.79-.01-1.1.02-.15.04-.3.06-.44l.03-.22c.03-.26.06-.52.1-.78.12-1.14.23-2.21.34-3.22.23-2.31.36-4.44.43-6.39.03-.45.05-.87.08-1.27.03-.39.06-.77.09-1.13l2.71,2.57c-.15.57-.28,1.16-.41,1.75l-.83,3.85c-.28,1.26-.59,2.62-.86,3.71l-.21.85c-.07.31-.15.47-.24,1.03-.06.47-.06,1.21.5,1.88.29.33.64.54,1.01.65.18.05.37.08.56.09.2,0,.38-.02.41-.03.27-.07.43-.31.59-.52l.48-.64c.33-.42.66-.84,1.01-1.24l-.53,1.12c-.09.19-.2.47-.31.74Z"/>
        <path class="cls-1" d="M18.98,33.37c-.26.41-.73.89-.95,1.45-.24.5-.42.81-.55.93-.25.23-.36-.28-.37-1.63-.02-1.36.3-2.66.78-3.73.46-1.05,1.03-1.77,1.03-1.77-1.14,1.25-1.87,2.59-2.34,3.74-.48,1.15-.68,2.16-.84,2.91-.02.09-.04.17-.07.26l-.03.12s.05.07-.16.13c-.22.1-.74.2-1.12.24-.4.05-.77.06-1.13.06-1.41-.03-2.5-.36-3.3-.69-.8-.33-1.3-.62-1.6-.77-.3-.15-.4-.18-.4-.18,0,0,.4.51,1.2,1.16.79.65,1.98,1.37,3.46,1.76.74.2,1.56.33,2.47.32.18,0,.36,0,.54-.02h.23s.02,0,.03,0l.05.06c.07.08.14.19.19.35.28.99.21,3.03.28,3.68l.02.27v.06s0,0-.06.02l-.13.02-.26.04-.26.04-.39.04c-1.13.08-2.25.02-3.39-.18-2.25-.42-4.63-1.42-6.81-3.48-.54-.51-1.05-1.09-1.52-1.72-.42-.57-.78-1.14-1.09-1.73-.63-1.18-1.04-2.38-1.27-3.46-.46-2.17-.34-3.77-.15-5,.1-.61.23-1.13.37-1.6.09-.32.09-.26.12-.3l.07-.09c.2-.23.48-.42.83-.57,1.14-.48,2.58-.05,3.8.65.61.35,1.17.77,1.61,1.16.22.2.41.39.57.57.04.05.07.09.11.13.04.03.07.08.07.21.03.24.05.46.07.64.04.44.11,1,.39,1.85.3.84.8,2.11,2.3,3.15.71.46,1.49.71,2.29.76.4.02.81,0,1.23-.08.12-.02.19-.05.26-.07.06-.02.17-.06.15-.07l.07-.13c.21-.36.33-.94.53-1.54.04-.12.21-.6.4-1.09.11-.27.22-.55.31-.74l.53-1.12.61-.68c.44-.47.89-.93,1.37-1.36.24-.21.48-.42.74-.62.13-.09.24-.22.4-.27.15-.05.33-.03.46.06.15.08.22.23.29.37l.22.43.45.85.89,1.71-1.72,3.8c-.75-.29-1.35-.06-1.87.7Z"/>
      </g>
      <g>
        <path class="cls-1" d="M28.13,41.07s-.05-.05-.07-.07l-1.06-1.34c-.28-.41-.55-.81-.81-1.19-.13-.19-.26-.38-.39-.57l-.19-.28-.16-.22c-.42-.57-.82-1.08-1.19-1.54-.74-.92-1.39-1.64-1.96-2.16-.55-.52-1.02-.85-1.45-1.01l1.72-3.8,1.3,2.48,5.61,10.71-.8-.61c-.14-.11-.34-.24-.55-.38Z"/>
        <path class="cls-1" d="M27.57,49.78c-2.72-.97-3.99-2.96-2.19-4.69,1.83-1.8,4.15.93,4.15.93-4.27-6.33-8.08-4.79-8.08-4.79,0,0,.47.66.07,1.7-.58,1.5-2.38,1.79-3.3,1.44-.54-.19-1.05-.63-1.34-1.2-.07-.14-.13-.3-.18-.46-.02-.08-.04-.16-.05-.24-.01-.08-.04-.19.01-.18.12-.07.3-.19.55-.36.82-.58,2.01-1.53,3.22-2.14.6-.31,1.21-.54,1.74-.67.26-.07.5-.11.71-.13.22,0,.43.07.57.11.59.23,1.95.46,3.85,1.46.09.05.47.27.83.51.21.13.41.27.55.38l.8.61.47.9,3.98,7.61-2.91,1.53c-1.2-1.15-2.32-1.92-3.45-2.31Z"/>
      </g>
    </g>
    <g>
      <g>
        <path class="cls-1" d="M22.96,12.42s.07,0,.1,0l1.81.03c1.59.12,3.08.2,4.53.28.37.04.74.08,1.1.11.3.02.6.04.89.07.56.03,1.09.06,1.61.09.26,0,.51.02.76.03.03,0,.19.01.34.04.15.02.32.06.5.1.36.1.78.24,1.24.53.47.3.93.66,1.37,1.3.42.62.64,1.29.74,1.91.09.62.06,1.22-.08,1.79-.07.29-.17.58-.28.83l-.04.1s0,.01,0,.02v.03s-.02.06-.02.06c-.11.3-.35.31-.49.4-.16.08-.28.17-.38.26l-3.5-1.34c.58-.13,1.18-.15,1.76-.31.14-.06.25-.16.32-.29.16-.29.29-.75.26-1.16-.01-.41-.18-.89-.49-1.25-.28-.34-.63-.54-.91-.66-.28-.12-.58-.18-.74-.21l-.48-.1-.96-.21-1.96-.43c-2.83-.59-5.6-1.08-8.41-1.63l.87-.21c.16-.04.36-.1.57-.17Z"/>
        <path class="cls-1" d="M12.88,8.88c.05-.87.06-1.74.68-2.31.22-.31.56-.26.89-.31.33-.03.67-.02,1.01,0,1.37.12,2.69.7,3.56,1.84.89,1.17.25,1.8-.47,2.11-.73.32-1.63.33-1.63.33,4.14.32,6.35-.49,7.65-1.42.64-.46,1.02-.94,1.22-1.3.21-.36.24-.61.24-.61,0,0-.29,0-.71-.11-.43-.11-1-.33-1.59-.77-1.75-1.26-1.21-2.8.01-3.39,1.31-.68,4.33-.78,5.93.49.32.26.54.55.66.86.15.34.2.68.17,1.02-.03.69-.38,1.3-.75,1.97-.78,1.3-1.83,2.39-2.42,2.73-.61.34-1.73,1.27-3.54,2.09-.09.04-.47.19-.84.31-.21.07-.41.14-.57.17l-.87.21-1.07-.2-2.26-.43c-.37-.06-.76-.18-1.13-.18-.18.02-.37.12-.49.26-.13.14-.16.33-.22.49-.43,1.37-.85,2.79-1.23,4.28l-2.71-2.57c.2-2.3.43-4.06.47-5.58Z"/>
      </g>
      <g>
        <path class="cls-1" d="M16.3,30.25s-.04.07-.05.09c-.3.47-.53.99-.85,1.41-.05.04-.1.08-.15.11-.06.03-.06.04-.34.08-.58.05-1.14-.04-1.67-.28-.52-.22-1.07-.68-1.4-1.2-.32-.5-.48-1.03-.54-1.46-.06-.43-.05-.79-.01-1.1.02-.15.04-.3.06-.44l.03-.22c.03-.26.06-.52.1-.78.12-1.14.23-2.21.34-3.22.23-2.31.36-4.44.43-6.39.03-.45.05-.87.08-1.27.03-.39.06-.77.09-1.13l2.71,2.57c-.15.57-.28,1.16-.41,1.75l-.83,3.85c-.28,1.26-.59,2.62-.86,3.71l-.21.85c-.07.31-.15.47-.24,1.03-.06.47-.06,1.21.5,1.88.29.33.64.54,1.01.65.18.05.37.08.56.09.2,0,.38-.02.41-.03.27-.07.43-.31.59-.52l.48-.64c.33-.42.66-.84,1.01-1.24l-.53,1.12c-.09.19-.2.47-.31.74Z"/>
        <path class="cls-1" d="M18.98,33.37c-.26.41-.73.89-.95,1.45-.24.5-.42.81-.55.93-.25.23-.36-.28-.37-1.63-.02-1.36.3-2.66.78-3.73.46-1.05,1.03-1.77,1.03-1.77-1.14,1.25-1.87,2.59-2.34,3.74-.48,1.15-.68,2.16-.84,2.91-.02.09-.04.17-.07.26l-.03.12s.05.07-.16.13c-.22.1-.74.2-1.12.24-.4.05-.77.06-1.13.06-1.41-.03-2.5-.36-3.3-.69-.8-.33-1.3-.62-1.6-.77-.3-.15-.4-.18-.4-.18,0,0,.4.51,1.2,1.16.79.65,1.98,1.37,3.46,1.76.74.2,1.56.33,2.47.32.18,0,.36,0,.54-.02h.23s.02,0,.03,0l.05.06c.07.08.14.19.19.35.28.99.21,3.03.28,3.68l.02.27v.06s0,0-.06.02l-.13.02-.26.04-.26.04-.39.04c-1.13.08-2.25.02-3.39-.18-2.25-.42-4.63-1.42-6.81-3.48-.54-.51-1.05-1.09-1.52-1.72-.42-.57-.78-1.14-1.09-1.73-.63-1.18-1.04-2.38-1.27-3.46-.46-2.17-.34-3.77-.15-5,.1-.61.23-1.13.37-1.6.09-.32.09-.26.12-.3l.07-.09c.2-.23.48-.42.83-.57,1.14-.48,2.58-.05,3.8.65.61.35,1.17.77,1.61,1.16.22.2.41.39.57.57.04.05.07.09.11.13.04.03.07.07.07.21.03.24.05.46.07.64.04.44.11,1,.39,1.85.3.84.8,2.11,2.3,3.15.71.46,1.49.71,2.29.76.4.02.81,0,1.23-.08.12-.02.19-.05.26-.07.06-.02.17-.06.15-.07l.07-.13c.21-.36.33-.94.53-1.54.04-.12.21-.6.4-1.09.11-.27.22-.55.31-.74l.53-1.12.61-.68c.44-.47.89-.93,1.37-1.36.24-.21.48-.42.74-.62.13-.09.24-.22.4-.27.15-.05.33-.03.46.06.15.08.22.23.29.37l.22.43.45.85.89,1.71-1.72,3.8c-.75-.29-1.35-.06-1.87.7Z"/>
      </g>
    </g>
    <g>
      <g>
        <path class="cls-1" d="M31.57,24.31s.06.04.09.06l1.29,1.02c1.91,1.72,3.45,3.03,4.75,4,.16.12.32.23.47.35.16.11.29.2.5.37.38.3.75.58,1.11.85.72.53,1.4.98,2.04,1.37l-2.49,2.14-9.59-11.14,1.09.62c.19.1.46.24.73.37Z"/>
        <path class="cls-1" d="M37.02,21.65c.41.25.73.45.9.61.16.11.22.37.35.53.22.26-.39.39-1.94.43-1.57.06-2.95-.3-4.05-.81-.54-.25-1.03-.5-1.31-.73-.26-.25-.23-.43-.23-.43-.04.17.03.38.18.52.16.13.32.26.47.39.32.25.63.48.94.69.62.42,1.22.77,1.79,1.05,1.14.56,2.16.84,3.02.97.86.13,1.56.12,2.06.09.5-.03.79-.08.79-.08,0,0-.08-.05-.06-.15.02-.1.14-.24.57-.39,1.27-.39,3.57-.35,4.35-.45.99-.06,1.06-.26-.13.21-.97.39-2.38,1.05-3.84,1.43-1.45.4-2.98.48-3.63.38-.65-.11-2.15-.18-4.57-1.13-.12-.05-.6-.25-1.08-.48-.27-.13-.54-.27-.73-.37l-1.09-.62-.6-.69-.63-.73-.31-.37c-.11-.12-.22-.25-.23-.41-.02-.16.03-.33.14-.45.1-.13.27-.17.41-.24.3-.13.59-.24.89-.36,1.2-.45,2.45-.79,3.71-1.03l3.5,1.34c-.43.41-.31.86.38,1.27Z"/>
      </g>
      <g>
        <path class="cls-1" d="M22.96,12.42s.07,0,.1,0l1.81.03c1.59.12,3.08.2,4.53.28.37.04.74.08,1.1.11.3.02.6.04.89.07.56.03,1.09.06,1.61.09.26,0,.51.02.76.03.03,0,.19.01.34.04.15.02.32.06.5.1.36.1.78.24,1.24.53.47.3.93.66,1.37,1.3.42.62.64,1.29.74,1.91.09.62.06,1.22-.08,1.79-.07.29-.17.58-.28.83l-.04.1s0,.01,0,.02v.03s-.02.06-.02.06c-.11.3-.35.31-.49.4-.16.08-.28.17-.38.26l-3.5-1.34c.58-.13,1.18-.15,1.76-.31.14-.06.25-.16.32-.29.16-.29.29-.75.26-1.16-.01-.41-.18-.89-.49-1.25-.28-.34-.63-.54-.91-.66-.28-.12-.58-.18-.74-.21l-.48-.1-.96-.21-1.96-.43c-2.83-.59-5.6-1.08-8.41-1.63l.87-.21c.16-.04.36-.1.57-.17Z"/>
        <path class="cls-1" d="M12.88,8.88c.05-.87.06-1.74.68-2.31.22-.31.56-.26.89-.31.33-.03.67-.02,1.01,0,1.37.12,2.69.7,3.56,1.84.89,1.17.25,1.8-.47,2.11-.73.32-1.63.33-1.63.33,4.14.32,6.35-.49,7.65-1.42.64-.46,1.02-.94,1.22-1.3.21-.36.24-.61.24-.61,0,0-.29,0-.71-.11-.43-.11-1-.33-1.59-.77-1.75-1.26-1.21-2.8.01-3.39,1.31-.68,4.33-.78,5.93.49.32.26.54.55.66.86.15.34.2.68.17,1.02-.03.69-.38,1.3-.75,1.97-.78,1.3-1.83,2.39-2.42,2.73-.61.34-1.73,1.27-3.54,2.09-.09.04-.47.19-.84.31-.21.07-.41.14-.57.17l-.87.21-1.07-.2-2.26-.43c-.37-.06-.76-.18-1.13-.18-.18.02-.37.12-.49.26-.13.14-.16.33-.22.49-.43,1.37-.85,2.79-1.23,4.28l-2.71-2.57c.2-2.3.43-4.06.47-5.58Z"/>
      </g>
    </g>
    <g>
      <g>
        <path class="cls-1" d="M47.15,42.4s.06.04.08.06l.33.27.04.03.15.18c.1.12.19.26.26.4.16.28.26.59.31.9.1.63,0,1.28-.31,1.87-.15.29-.36.56-.61.79-.12.11-.26.22-.39.3l-.08.07c-4.59,3.49-7.78,6.09-9.73,8.37l-1.68-2.82,6.84-4.07,3.42-2.04.43-.25.21-.13.05-.03.16-.11c.1-.08.2-.16.29-.26.35-.39.53-.9.51-1.42-.01-.26-.08-.51-.19-.75-.09-.22-.34-.5-.34-.5l-1.3-1.51.92.42c.16.07.39.16.62.24Z"/>
        <path class="cls-1" d="M45.73,33.79c2.87.33,4.56,1.97,3.2,4.07-1.38,2.16-4.25.03-4.25.03,1.4,1.3,2.66,2.13,3.76,2.64.28.13.54.24.8.33.13.04.25.08.38.12h.05s.14.15.2.22c.15.17.3.35.43.54.27.38.48.79.65,1.21.65,1.69.46,3.44-.24,4.85-.35.71-.84,1.33-1.39,1.84-.14.12-.28.24-.42.35l-.11.08s0,.02-.01.02v.04s-.04.14-.04.14c-.33,1.51.11,2.44.11,2.44,0,0,.16-.13.45-.21.15-.04.32-.07.53-.07.1,0,.22,0,.34.03.03,0-.01.03.09-.02l.44-.25c.29-.17.58-.36.85-.57.55-.41,1.07-.89,1.52-1.42,1.32-1.53,1.92-3.08,2.25-4.33.33-1.26.39-2.28.45-2.97.07-1.41.32-1.63.89-.77.52.85,1.21,2.89.78,5.62-.22,1.35-.72,2.86-1.64,4.32-.46.73-1.02,1.44-1.67,2.09-.33.33-.68.64-1.04.93-.18.15-.37.29-.56.42l-.29.2c-.07.04-.07.05-.07.05h0c-.31,1.12-1.64,2.12-3.14,1.61-2.44-.85-2.75-5.34-2.4-6.54.1-.3.19-.8.36-1.46.09-.33.2-.7.34-1.12.04-.1.08-.21.11-.32.02-.03,0-.04.06-.1.11-.09.21-.18.31-.28.2-.2.38-.42.53-.67.6-.97.71-2.18.24-3.23-.05-.1-.13-.29-.28-.51-.08-.11-.17-.23-.28-.35-.06-.06-.11-.11-.18-.18l-.05-.04s0,0,0,0h-.03c-.17-.07-.37-.14-.58-.21-.23-.08-.46-.17-.62-.24l-.92-.42-.67-.77-5.6-6.51,2.49-2.14c1.43.85,2.7,1.34,3.89,1.47Z"/>
      </g>
      <g>
        <path class="cls-1" d="M31.57,24.31s.06.04.09.06l1.29,1.02c1.91,1.72,3.45,3.03,4.75,4,.16.12.32.23.47.35.16.11.29.2.5.37.38.3.75.58,1.11.85.72.53,1.4.98,2.04,1.37l-2.49,2.14-9.59-11.14,1.09.62c.19.1.46.24.73.37Z"/>
        <path class="cls-1" d="M37.02,21.65c.41.25.73.45.9.61.16.11.22.37.35.53.22.26-.39.39-1.94.43-1.57.06-2.95-.3-4.06-.81-.54-.25-1.03-.5-1.31-.73-.26-.25-.23-.43-.23-.43-.04.17.03.38.18.52.16.13.32.26.47.39.32.25.63.48.94.69.62.42,1.22.77,1.79,1.05,1.14.56,2.16.84,3.02.97.86.13,1.56.12,2.06.09.5-.03.79-.08.79-.08,0,0-.08-.05-.06-.15.02-.1.14-.24.57-.39,1.27-.39,3.57-.35,4.35-.45.99-.06,1.06-.26-.13.21-.97.39-2.38,1.05-3.84,1.43-1.45.4-2.98.48-3.63.38-.65-.11-2.15-.18-4.57-1.13-.12-.05-.6-.25-1.08-.48-.27-.13-.54-.27-.73-.37l-1.09-.62-.6-.69-.63-.73-.31-.37c-.11-.12-.22-.25-.23-.41-.02-.16.03-.33.14-.45.1-.13.27-.17.41-.24.3-.13.59-.24.89-.36,1.2-.45,2.45-.79,3.71-1.03l3.5,1.34c-.43.41-.31.86.38,1.27Z"/>
      </g>
    </g>
  </g>
</svg>