<?xml version="1.0" encoding="UTF-8"?>
<svg id="Layer_1" data-name="Layer 1" xmlns="http://www.w3.org/2000/svg" viewBox="0 0 148.12 146.71">
  <defs>
    <style>
      .cls-1 {
        fill: #052332;
      }

      .cls-2 {
        fill: #ceebf2;
      }
    </style>
  </defs>
  <rect class="cls-1" x="10.33" y="9.62" width="127.45" height="127.45" rx="22.7" ry="22.7"/>
  <path class="cls-2" d="M110.32,53.19v41.95c0,3-2.43,5.43-5.43,5.43h-10.89v-28.27l-19.94,14.87-19.94-14.87v28.27h-10.89c-3,0-5.43-2.43-5.43-5.43v-41.95c0-3.9,3.16-7.06,7.06-7.06,1.55,0,2.98.5,4.15,1.36l.41.31,24.64,18.37,24.64-18.37.41-.31c1.17-.86,2.6-1.36,4.15-1.36,3.9,0,7.06,3.16,7.06,7.06Z"/>
</svg>