<?xml version="1.0" encoding="UTF-8"?>
<svg id="Layer_1" data-name="Layer 1" xmlns="http://www.w3.org/2000/svg" viewBox="0 0 148.12 146.71">
  <defs>
    <style>
      .cls-1 {
        fill: #052332;
      }

      .cls-2 {
        fill: #ceebf2;
      }
    </style>
  </defs>
  <rect class="cls-1" x="10.33" y="9.62" width="127.45" height="127.45" rx="22.7" ry="22.7"/>
  <g>
    <circle class="cls-2" cx="94.79" cy="52.55" r="4.98" transform="translate(-9.39 82.42) rotate(-45)"/>
    <path class="cls-2" d="M91.33,34.22h-34.52c-12.02,0-21.87,9.84-21.87,21.86v34.52c0,12.02,9.85,21.86,21.87,21.86h34.52c12.02,0,21.86-9.84,21.86-21.86v-34.52c0-12.02-9.84-21.86-21.86-21.86ZM106.58,89.23c0,9.15-7.48,16.63-16.63,16.63h-31.78c-9.15,0-16.63-7.48-16.63-16.63v-31.78c0-9.15,7.48-16.63,16.63-16.63h31.78c9.15,0,16.63,7.48,16.63,16.63v31.78Z"/>
    <path class="cls-2" d="M74.07,53.35c-11.05,0-20.02,8.96-20.02,20.02s8.97,20.01,20.02,20.01,20.01-8.96,20.01-20.01-8.96-20.02-20.01-20.02ZM74.06,86.2c-7.1,0-12.85-5.76-12.85-12.85s5.75-12.85,12.85-12.85,12.85,5.75,12.85,12.85-5.75,12.85-12.85,12.85Z"/>
  </g>
</svg>