<?xml version="1.0" encoding="UTF-8"?>
<svg id="Layer_1" data-name="Layer 1" xmlns="http://www.w3.org/2000/svg" viewBox="0 0 148.12 146.71">
  <defs>
    <style>
      .cls-1 {
        fill: #052332;
      }

      .cls-2 {
        fill: #ceebf2;
      }
    </style>
  </defs>
  <rect class="cls-1" x="10.33" y="9.64" width="127.45" height="127.45" rx="22.7" ry="22.7"/>
  <path class="cls-2" d="M111.95,28.15H36.45c-3.81,0-6.92,3.12-6.92,6.92v76.56c0,3.8,3.11,6.92,6.92,6.92h75.5c3.81,0,6.92-3.12,6.92-6.92V35.07c0-3.8-3.11-6.92-6.92-6.92ZM54.18,105.27h-12.31v-42.96h12.31v42.96ZM48.18,55.34c-4.88,0-8.02-3.54-8-8.05-.02-4.66,3.16-8.08,8.11-8.08s8.04,3.42,8.1,8.08c.03,4.51-3.13,8.05-8.21,8.05ZM105.53,105.25l-12.56.02c-.25-6.41.31-12.88.49-19.28.07-2.5-.08-5.07-1.05-7.38-1.59-3.78-5.68-6.09-9.76-5.08-5.2,1.3-6.74,6.58-6.7,11.33.03,3.11.13,6.2.1,9.31-.01.68-.08,11.1-.1,11.1l-12.64-.02s.17-38.22,0-42.11h12.11s-.02,5.47-.02,5.47c1.56-2.18,7.65-6.3,14.79-6.3,9.91,0,15.34,6.68,15.34,18.16v24.78Z"/>
</svg>